<svg xmlns="http://www.w3.org/2000/svg" xmlns:xlink="http://www.w3.org/1999/xlink" width="197.188" height="119.865" viewBox="0 0 197.188 119.865">
  <defs>
    <clipPath id="clip-path">
      <path id="Path_46" data-name="Path 46" d="M163.172,61.07a7.607,7.607,0,1,0,7.607-7.606,7.609,7.609,0,0,0-7.607,7.606" transform="translate(-163.172 -53.464)" fill="none"/>
    </clipPath>
    <clipPath id="clip-path-2">
      <path id="Path_75" data-name="Path 75" d="M222.919,92.784a5.9,5.9,0,0,1-.131-1.237l.013-.357a5.957,5.957,0,0,1,10.684-3.249l0,.009a5.872,5.872,0,0,1,1.212,3.6,5.956,5.956,0,0,1-11.783,1.237m-57.786-23.57-.151,0c-.354.026-.662.126-1.044.156l-.364.13-.029.013-.014.044v63.173c0,.264.008.524.023.787l.028.367a14.915,14.915,0,0,0,4.6,9.7,16.282,16.282,0,0,0,11.007,4.5v-.128c0-2.761.014-47.025.027-48.768h12.949v47.013a16.349,16.349,0,0,0,16.107,16.083v-63.1h28.188V83.531H179.218a14.528,14.528,0,0,0-11.933-14.153c-.22-.034-.439-.063-.662-.089a14.324,14.324,0,0,0-1.446-.076Z" transform="translate(-163.531 -69.214)" fill="none"/>
    </clipPath>
  </defs>
  <g id="Group_436" data-name="Group 436" transform="translate(0 0)">
    <path id="Path_1" data-name="Path 1" d="M212.729,165.678V114.587A15.587,15.587,0,0,1,228.316,99v51.091a15.586,15.586,0,0,1-15.587,15.586" transform="translate(-154.828 -45.819)" fill="#a6332e"/>
    <path id="Path_2" data-name="Path 2" d="M228.584,97.489a5.958,5.958,0,1,1,5.954-5.959,5.959,5.959,0,0,1-5.954,5.959M179.059,83.512a14.339,14.339,0,0,0-15.4-14.134,1.258,1.258,0,0,0-.515.164v63.172a15.057,15.057,0,0,0,4.773,10.861,16.1,16.1,0,0,0,11.128,4.405s0-47.018.009-48.808h13.127c0,13.87.03,32.081.03,46.924a16.151,16.151,0,0,0,16.121,16.17V99.172h28.189V83.512Z" transform="translate(-163.149 -50.798)" fill="#b03633"/>
    <path id="Path_3" data-name="Path 3" d="M178.388,61.071a7.609,7.609,0,1,0-7.611,7.608,7.609,7.609,0,0,0,7.611-7.608" transform="translate(-163.145 -53.461)" fill="#b03633"/>
    <rect id="Rectangle_1" data-name="Rectangle 1" width="3.341" height="16.541" transform="translate(90.397 33.101)" fill="#424143"/>
    <path id="Path_4" data-name="Path 4" d="M248.638,85.479l.09,1.213a3.409,3.409,0,0,1,2.851-1.442q3.169,0,3.261,4.441v8.078h-3.227V89.931a2.847,2.847,0,0,0-.31-1.516,1.223,1.223,0,0,0-1.1-.471,1.5,1.5,0,0,0-1.361.9v8.929h-3.229V85.479Z" transform="translate(-149.309 -48.126)" fill="#424143"/>
    <path id="Path_5" data-name="Path 5" d="M256.336,98.512V88.629h-1.49V86.222h1.49v-1.1a4.485,4.485,0,0,1,1.073-3.165,3.832,3.832,0,0,1,2.938-1.13,6.208,6.208,0,0,1,1.453.225l-.023,2.568a2.667,2.667,0,0,0-.781-.1q-1.435,0-1.434,1.706v1h1.92v2.407h-1.92v9.883Z" transform="translate(-147.76 -48.869)" fill="#424143"/>
    <path id="Path_6" data-name="Path 6" d="M264.922,92.034q0,3.292,1.763,3.292,1.62,0,1.749-2.748l.01-1.354a5.192,5.192,0,0,0-.467-2.493,1.454,1.454,0,0,0-1.318-.812,1.421,1.421,0,0,0-1.278.812,5.218,5.218,0,0,0-.46,2.493Zm-3.227-.809a6.686,6.686,0,0,1,1.317-4.384,5.006,5.006,0,0,1,7.32,0,6.725,6.725,0,0,1,1.314,4.407v.786a6.693,6.693,0,0,1-1.3,4.384,5.046,5.046,0,0,1-7.335,0,6.735,6.735,0,0,1-1.311-4.405Z" transform="translate(-146.611 -48.126)" fill="#424143"/>
    <path id="Path_7" data-name="Path 7" d="M278,88.579l-1.064-.093a1.758,1.758,0,0,0-1.788,1.161v8.122h-3.226V85.475h3.036l.089,1.332a2.326,2.326,0,0,1,2.1-1.558,2.255,2.255,0,0,1,.886.147Z" transform="translate(-144.895 -48.126)" fill="#424143"/>
    <path id="Path_8" data-name="Path 8" d="M281.557,85.479l.089,1.133A3.458,3.458,0,0,1,284.5,85.25a2.649,2.649,0,0,1,2.6,1.659,3.375,3.375,0,0,1,3.015-1.659q3.223,0,3.3,4.466v8.053H290.2v-7.85a2.885,2.885,0,0,0-.3-1.522,1.1,1.1,0,0,0-1-.453c-.6,0-1.044.364-1.342,1.1l.023.388v8.338h-3.215V89.941a3.075,3.075,0,0,0-.284-1.526,1.075,1.075,0,0,0-1.008-.471,1.476,1.476,0,0,0-1.321.9v8.929h-3.216V85.479Z" transform="translate(-143.784 -48.126)" fill="#424143"/>
    <path id="Path_9" data-name="Path 9" d="M297.3,95.474a1.783,1.783,0,0,0,.909-.217,1.465,1.465,0,0,0,.558-.51V92.19h-.774a1.652,1.652,0,0,0-1.287.523,1.99,1.99,0,0,0-.469,1.4c0,.909.353,1.363,1.064,1.363m1.9,2.295a4.559,4.559,0,0,1-.272-.954A2.742,2.742,0,0,1,296.587,98a3.453,3.453,0,0,1-2.562-1.023,3.6,3.6,0,0,1-1.016-2.645,3.725,3.725,0,0,1,1.232-2.987,5.361,5.361,0,0,1,3.549-1.08h.978v-.989a1.861,1.861,0,0,0-.283-1.17,1.028,1.028,0,0,0-.829-.34q-1.207,0-1.205,1.407h-3.216a3.559,3.559,0,0,1,1.28-2.811,4.761,4.761,0,0,1,3.231-1.107,4.362,4.362,0,0,1,3.128,1.051,3.932,3.932,0,0,1,1.111,3v5.783a6.033,6.033,0,0,0,.454,2.487v.193Z" transform="translate(-141.356 -48.126)" fill="#424143"/>
    <path id="Path_10" data-name="Path 10" d="M306.555,82.855V85.88H308.2v2.407h-1.645V94.4a1.78,1.78,0,0,0,.2,1,.887.887,0,0,0,.764.273,2.989,2.989,0,0,0,.76-.079l-.021,2.5a4.986,4.986,0,0,1-1.773.307q-3.109,0-3.145-3.569V88.287h-1.422V85.88h1.422V82.855Z" transform="translate(-139.86 -48.528)" fill="#424143"/>
    <path id="Path_11" data-name="Path 11" d="M312.18,98.438h-3.225V86.148h3.225Zm-3.374-15.472a1.655,1.655,0,0,1,.478-1.226,1.932,1.932,0,0,1,2.546,0,1.664,1.664,0,0,1,.478,1.226,1.8,1.8,0,0,1-3.029,1.226,1.683,1.683,0,0,1-.472-1.226" transform="translate(-138.705 -48.796)" fill="#424143"/>
    <path id="Path_12" data-name="Path 12" d="M316.732,92.034q0,3.292,1.761,3.292,1.626,0,1.751-2.748l.01-1.354a5.181,5.181,0,0,0-.466-2.493,1.455,1.455,0,0,0-1.318-.812,1.414,1.414,0,0,0-1.276.812,5.188,5.188,0,0,0-.461,2.493Zm-3.227-.809a6.68,6.68,0,0,1,1.317-4.384,5,5,0,0,1,7.318,0,6.714,6.714,0,0,1,1.317,4.407v.786a6.687,6.687,0,0,1-1.306,4.384,5.047,5.047,0,0,1-7.335,0,6.736,6.736,0,0,1-1.311-4.405Z" transform="translate(-137.916 -48.126)" fill="#424143"/>
    <path id="Path_13" data-name="Path 13" d="M326.692,85.479l.09,1.213a3.414,3.414,0,0,1,2.853-1.442q3.169,0,3.259,4.441v8.078h-3.227V89.931a2.834,2.834,0,0,0-.311-1.516,1.219,1.219,0,0,0-1.1-.471,1.5,1.5,0,0,0-1.362.9v8.929H323.67V85.479Z" transform="translate(-136.21 -48.126)" fill="#424143"/>
    <path id="Path_14" data-name="Path 14" d="M251.251,108.343h-4.09V122.1h-3.35V108.343h-4.022v-2.782h11.463Z" transform="translate(-150.287 -44.718)" fill="#424143"/>
    <g id="Group_1" data-name="Group 1" transform="translate(102.439 59.935)">
      <path id="Path_15" data-name="Path 15" d="M254.095,114.208h3.216v-.3a3.429,3.429,0,0,0-.366-1.669,1.26,1.26,0,0,0-1.18-.569,1.341,1.341,0,0,0-1.224.6,4.174,4.174,0,0,0-.447,1.934m2.022,7.542a5.035,5.035,0,0,1-3.861-1.477,5.936,5.936,0,0,1-1.388-4.225v-.976a6.982,6.982,0,0,1,1.274-4.488A4.417,4.417,0,0,1,255.786,109a4.17,4.17,0,0,1,3.487,1.48,7.046,7.046,0,0,1,1.195,4.385v1.577h-6.394a3.348,3.348,0,0,0,.6,2,2.041,2.041,0,0,0,1.649.631,3.611,3.611,0,0,0,2.691-1.1l1.262,1.941a4.175,4.175,0,0,1-1.715,1.324,5.939,5.939,0,0,1-2.443.5" transform="translate(-250.867 -104.075)" fill="#424143"/>
      <path id="Path_16" data-name="Path 16" d="M265.142,119.079c.934,0,1.4-.6,1.421-1.815h3.019a4.5,4.5,0,0,1-1.236,3.248,4.2,4.2,0,0,1-3.137,1.238,4.484,4.484,0,0,1-3.624-1.477,6.652,6.652,0,0,1-1.272-4.351v-.975a6.889,6.889,0,0,1,1.231-4.419A4.415,4.415,0,0,1,265.187,109a4.187,4.187,0,0,1,3.206,1.253,5.11,5.11,0,0,1,1.189,3.563h-3.019a3.247,3.247,0,0,0-.342-1.591,1.168,1.168,0,0,0-1.091-.557,1.3,1.3,0,0,0-1.2.6,5.056,5.056,0,0,0-.389,2.311v1.251a9.944,9.944,0,0,0,.15,2.1,1.571,1.571,0,0,0,.488.876,1.481,1.481,0,0,0,.965.276" transform="translate(-249.282 -104.075)" fill="#424143"/>
      <path id="Path_17" data-name="Path 17" d="M272.953,111.019a3.184,3.184,0,0,1,2.569-1.307,2.986,2.986,0,0,1,2.556,1.182,5.935,5.935,0,0,1,.886,3.521v7.816h-3.229V114.45a2.774,2.774,0,0,0-.334-1.56,1.222,1.222,0,0,0-1.083-.487,1.528,1.528,0,0,0-1.366.808v9.02h-3.21V104.783h3.21Z" transform="translate(-247.699 -104.783)" fill="#424143"/>
      <path id="Path_18" data-name="Path 18" d="M282.568,109.233l.09,1.213A3.417,3.417,0,0,1,285.51,109q3.169,0,3.261,4.442v8.074h-3.227v-7.836a2.832,2.832,0,0,0-.311-1.516,1.22,1.22,0,0,0-1.1-.472,1.5,1.5,0,0,0-1.362.9v8.927h-3.226V109.233Z" transform="translate(-246.054 -104.075)" fill="#424143"/>
      <path id="Path_19" data-name="Path 19" d="M292.323,115.788q0,3.293,1.763,3.291c1.083,0,1.667-.912,1.749-2.746l.009-1.352a5.192,5.192,0,0,0-.466-2.5,1.449,1.449,0,0,0-1.319-.813,1.419,1.419,0,0,0-1.278.813,5.241,5.241,0,0,0-.46,2.5Zm-3.224-.807a6.688,6.688,0,0,1,1.315-4.384,5,5,0,0,1,7.32,0,6.712,6.712,0,0,1,1.314,4.4v.788a6.684,6.684,0,0,1-1.3,4.384,5.045,5.045,0,0,1-7.335-.006,6.721,6.721,0,0,1-1.31-4.4Z" transform="translate(-244.451 -104.075)" fill="#424143"/>
    </g>
    <rect id="Rectangle_2" data-name="Rectangle 2" width="3.226" height="17.449" transform="translate(159.189 59.933)" fill="#424143"/>
    <g id="Group_2" data-name="Group 2" transform="translate(164.524 64.864)">
      <path id="Path_20" data-name="Path 20" d="M307.257,115.788q0,3.293,1.763,3.291c1.081,0,1.665-.912,1.748-2.746l.008-1.352a5.194,5.194,0,0,0-.464-2.5,1.452,1.452,0,0,0-1.318-.813,1.416,1.416,0,0,0-1.278.813,5.214,5.214,0,0,0-.46,2.5Zm-3.227-.807a6.676,6.676,0,0,1,1.317-4.384,5,5,0,0,1,7.32,0,6.713,6.713,0,0,1,1.316,4.4v.788a6.685,6.685,0,0,1-1.307,4.384,5.045,5.045,0,0,1-7.335-.006,6.728,6.728,0,0,1-1.311-4.4Z" transform="translate(-304.03 -109.004)" fill="#424143"/>
      <path id="Path_21" data-name="Path 21" d="M317.147,115.809a5.234,5.234,0,0,0,.444,2.482,1.5,1.5,0,0,0,1.408.779,1.641,1.641,0,0,0,1.464-.712v-5.878a1.605,1.605,0,0,0-1.44-.782,1.526,1.526,0,0,0-1.414.782,5.182,5.182,0,0,0-.463,2.52ZM313.934,115a7.664,7.664,0,0,1,1.088-4.509A3.577,3.577,0,0,1,318.079,109a2.952,2.952,0,0,1,2.58,1.316l.125-1.088h2.9v12.289a4.7,4.7,0,0,1-1.318,3.6,5.3,5.3,0,0,1-3.784,1.245,6.243,6.243,0,0,1-2.123-.4,3.936,3.936,0,0,1-1.658-1.029l1.08-2.225a3.407,3.407,0,0,0,1.178.775,3.564,3.564,0,0,0,1.377.3,2.006,2.006,0,0,0,1.55-.516,2.456,2.456,0,0,0,.481-1.663v-1.056a2.866,2.866,0,0,1-2.4,1.2,3.485,3.485,0,0,1-3.037-1.53,7.514,7.514,0,0,1-1.1-4.31Z" transform="translate(-302.368 -109.004)" fill="#424143"/>
      <path id="Path_22" data-name="Path 22" d="M328.367,116.14,330,109.2h3.435l-4.044,14.129q-.913,3.125-3.422,3.123a4.786,4.786,0,0,1-1.316-.214v-2.511l.374.013a1.856,1.856,0,0,0,1.133-.292,1.812,1.812,0,0,0,.571-1l.251-.828L323.438,109.2h3.456Z" transform="translate(-300.773 -108.971)" fill="#424143"/>
    </g>
    <rect id="Rectangle_3" data-name="Rectangle 3" width="3.341" height="16.541" transform="translate(90.397 88.583)" fill="#424143"/>
    <g id="Group_3" data-name="Group 3" transform="translate(96.306 87.945)">
      <path id="Path_23" data-name="Path 23" d="M248.638,132.986l.09,1.215a3.412,3.412,0,0,1,2.851-1.442q3.169,0,3.261,4.44v8.078h-3.227v-7.841a2.849,2.849,0,0,0-.31-1.514,1.225,1.225,0,0,0-1.1-.474,1.5,1.5,0,0,0-1.361.9v8.927h-3.229v-12.29Z" transform="translate(-245.615 -128.098)" fill="#424143"/>
      <path id="Path_24" data-name="Path 24" d="M261.005,141.981a1.012,1.012,0,0,0-.391-.754,7.835,7.835,0,0,0-1.744-.934,7.214,7.214,0,0,1-2.732-1.673,3.153,3.153,0,0,1-.745-2.146,3.428,3.428,0,0,1,1.164-2.664,4.415,4.415,0,0,1,3.083-1.052,4.8,4.8,0,0,1,3.237,1.046,3.513,3.513,0,0,1,1.218,2.806h-3.219q0-1.5-1.247-1.5a1.148,1.148,0,0,0-.84.319,1.165,1.165,0,0,0-.331.885.931.931,0,0,0,.363.722,8.106,8.106,0,0,0,1.717.89,7.069,7.069,0,0,1,2.775,1.62,3.285,3.285,0,0,1,.812,2.311,3.223,3.223,0,0,1-1.238,2.646,4.988,4.988,0,0,1-3.248,1,5.149,5.149,0,0,1-2.386-.528,4.013,4.013,0,0,1-1.617-1.469,3.791,3.791,0,0,1-.585-2.033h3.054a1.972,1.972,0,0,0,.392,1.26,1.541,1.541,0,0,0,1.212.419c.859,0,1.294-.391,1.294-1.171" transform="translate(-244.031 -128.099)" fill="#424143"/>
      <path id="Path_25" data-name="Path 25" d="M268.4,130.365v3.022h1.647v2.407H268.4v6.11a1.777,1.777,0,0,0,.2,1,.892.892,0,0,0,.764.272,3.011,3.011,0,0,0,.761-.079l-.022,2.5a4.952,4.952,0,0,1-1.77.307q-3.114,0-3.146-3.569v-6.541h-1.424v-2.407h1.424v-3.022Z" transform="translate(-242.569 -128.5)" fill="#424143"/>
      <path id="Path_26" data-name="Path 26" d="M274.028,145.947H270.8V133.655h3.226Zm-3.373-15.474a1.653,1.653,0,0,1,.476-1.226,1.934,1.934,0,0,1,2.548,0,1.662,1.662,0,0,1,.475,1.226,1.75,1.75,0,1,1-3.5,0" transform="translate(-241.413 -128.768)" fill="#424143"/>
      <path id="Path_27" data-name="Path 27" d="M279.54,130.365v3.022h1.647v2.407H279.54v6.11a1.778,1.778,0,0,0,.2,1,.889.889,0,0,0,.764.272,2.989,2.989,0,0,0,.76-.079l-.021,2.5a4.957,4.957,0,0,1-1.773.307q-3.115,0-3.146-3.569v-6.541H274.9v-2.407h1.421v-3.022Z" transform="translate(-240.7 -128.5)" fill="#424143"/>
      <path id="Path_28" data-name="Path 28" d="M287.848,144.119a3.166,3.166,0,0,1-2.681,1.351A3.006,3.006,0,0,1,282.6,144.3a5.579,5.579,0,0,1-.874-3.391v-7.96h3.214V141q.024,1.794,1.195,1.795a1.656,1.656,0,0,0,1.588-.955v-8.882h3.238v12.29h-3.021Z" transform="translate(-239.555 -128.066)" fill="#424143"/>
      <path id="Path_29" data-name="Path 29" d="M295.464,130.365v3.022h1.648v2.407h-1.648v6.11a1.776,1.776,0,0,0,.2,1,.891.891,0,0,0,.765.272,3.009,3.009,0,0,0,.76-.079l-.021,2.5a4.959,4.959,0,0,1-1.772.307q-3.116,0-3.146-3.569v-6.541h-1.424v-2.407h1.424v-3.022Z" transform="translate(-238.027 -128.5)" fill="#424143"/>
      <path id="Path_30" data-name="Path 30" d="M300.7,137.961h3.216v-.3a3.473,3.473,0,0,0-.364-1.669,1.265,1.265,0,0,0-1.182-.566,1.336,1.336,0,0,0-1.222.6,4.127,4.127,0,0,0-.448,1.932m2.023,7.542a5.046,5.046,0,0,1-3.862-1.475,5.943,5.943,0,0,1-1.387-4.226v-.978a6.978,6.978,0,0,1,1.274-4.487,4.405,4.405,0,0,1,3.644-1.581,4.174,4.174,0,0,1,3.488,1.48,7.064,7.064,0,0,1,1.2,4.386V140.2h-6.4a3.341,3.341,0,0,0,.6,2,2.037,2.037,0,0,0,1.647.632,3.61,3.61,0,0,0,2.692-1.1l1.261,1.942A4.183,4.183,0,0,1,305.167,145a5.893,5.893,0,0,1-2.444.5" transform="translate(-236.912 -128.099)" fill="#424143"/>
    </g>
    <path id="Path_31" data-name="Path 31" d="M231.3,81.091v75.87h2.684V81.091" transform="translate(-151.711 -48.824)" fill="#b03633"/>
    <g id="Group_4" data-name="Group 4" transform="translate(57.9 53.053)">
      <path id="Path_32" data-name="Path 32" d="M228.316,98.89a15.586,15.586,0,0,0-15.587,15.587v.128a15.547,15.547,0,0,1,5.706-12.053,15,15,0,0,1,9.491-3.538c.131,0,.232,0,.3.006h.091V98.89Z" transform="translate(-212.728 -98.89)" fill="#d9ae9e"/>
      <path id="Path_33" data-name="Path 33" d="M228.316,99h-.091l.091,0Zm0,.007-10.152,22.286,10.122,14.071-6.849,13.382,4.856,8.9a15.511,15.511,0,0,0,2.024-7.685Zm-9.881,3.524a15.55,15.55,0,0,0-5.706,12.054V119.6c0-1.417.013-2.826.033-4.162v-1.655l.026.039c.007-.253.012-.5.017-.745,1.035-5.189,3.219-8.47,5.63-10.543m-5.706,19.4v43.619h.033V127.138c-.015-1.581-.028-3.367-.033-5.206" transform="translate(-212.728 -98.871)" fill="#a6332e"/>
      <path id="Path_34" data-name="Path 34" d="M212.756,111.658v1.655c.007-.552.02-1.1.029-1.616Zm5.4,7.511-5.325,11.69s-.043-2.451-.077-5.845v38.413l.077-32.568,8.6,15.763,6.853-13.382Z" transform="translate(-212.724 -96.747)" fill="#95332f"/>
      <path id="Path_35" data-name="Path 35" d="M226.325,149.277a15.663,15.663,0,0,1-5.421,5.649,13.986,13.986,0,0,0,5.443-5.6Zm-13.313,7.962h-.255v.006s.09,0,.256-.007" transform="translate(-212.724 -90.434)" fill="#c09f97"/>
      <path id="Path_36" data-name="Path 36" d="M226.287,149.221a15.589,15.589,0,0,1-13.462,7.9l-.069.126h.255a18.271,18.271,0,0,0,7.891-2.313,15.651,15.651,0,0,0,5.422-5.65Z" transform="translate(-212.723 -90.443)" fill="#983230"/>
      <path id="Path_37" data-name="Path 37" d="M221.421,141.6l-8.607,16.8a15.59,15.59,0,0,0,13.465-7.9Z" transform="translate(-212.714 -91.723)" fill="#983230"/>
      <path id="Path_38" data-name="Path 38" d="M212.833,128.1l-.076,32.568h.069l8.6-16.8Z" transform="translate(-212.723 -93.988)" fill="#8c3230"/>
      <path id="Path_39" data-name="Path 39" d="M228.316,99v0M212.729,119.6c0,.778,0,1.561,0,2.333Z" transform="translate(-212.728 -98.871)" fill="#d2bab5"/>
      <path id="Path_40" data-name="Path 40" d="M227.1,99a15,15,0,0,0-9.487,3.538A15.511,15.511,0,0,1,227.4,99c-.067,0-.168-.006-.3-.006" transform="translate(-211.908 -98.872)" fill="#bd8a7d"/>
      <path id="Path_41" data-name="Path 41" d="M228.225,99a15.511,15.511,0,0,0-9.79,3.533c-2.41,2.073-4.6,5.354-5.63,10.542-.006.245-.01.493-.015.745l5.374,7.473,10.152-22.286v0l-.091,0m-15.464,16.436c-.019,1.334-.027,2.743-.031,4.163v2.333c0,1.838.015,3.624.031,5.2Z" transform="translate(-212.728 -98.871)" fill="#9d312e"/>
      <path id="Path_42" data-name="Path 42" d="M212.783,111.691c-.009.524-.02,1.063-.027,1.616v11.7c.032,3.394.077,5.845.077,5.845l5.325-11.693Z" transform="translate(-212.724 -96.742)" fill="#903231"/>
    </g>
    <g id="Group_6" data-name="Group 6" transform="translate(0.027 0.003)">
      <g id="Group_5" data-name="Group 5" clip-path="url(#clip-path)">
        <path id="Path_43" data-name="Path 43" d="M170.451,53.464a7.575,7.575,0,0,0-5.326,2.178L168.5,61.83l4.122-8.05a7.488,7.488,0,0,0-2.172-.316" transform="translate(-162.844 -53.464)" fill="#9a3333"/>
        <path id="Path_44" data-name="Path 44" d="M168.4,60.628l-2.7,5.263a7.626,7.626,0,0,0,6.164,1.429c.029-.055.062-.112.091-.167Z" transform="translate(-162.746 -52.262)" fill="#9d3433"/>
        <path id="Path_45" data-name="Path 45" d="M165.453,55.329a7.6,7.6,0,0,0,.681,11.452l2.7-5.263Z" transform="translate(-163.172 -53.151)" fill="#903332"/>
      </g>
    </g>
    <g id="Group_8" data-name="Group 8" transform="translate(0.446 18.396)">
      <g id="Group_7" data-name="Group 7" clip-path="url(#clip-path-2)">
        <path id="Path_47" data-name="Path 47" d="M228.748,97.508a5.962,5.962,0,0,1-5.83-4.724,5.878,5.878,0,0,1-.13-1.236l.015-.359a5.955,5.955,0,0,1,10.683-3.249l0,.011a5.874,5.874,0,0,1,1.211,3.6,5.959,5.959,0,0,1-2.671,4.971,5.892,5.892,0,0,1-3.284.988M179.441,83.531a14.607,14.607,0,0,0-12.154-14.153c-.222-.035-.441-.061-.663-.089a13.76,13.76,0,0,0-1.447-.076h-.042l-.153,0c-.3.032-.624.127-.931.156a1.731,1.731,0,0,0-.48.13l-.027.013-.014.043v63.172c0,.266.008.527.023.788l.028.368a15.016,15.016,0,0,0,4.729,9.639,15.807,15.807,0,0,0,10.881,4.432h.014l.234-.023s-.011-46.956,0-48.746h13.172v47.014a16.086,16.086,0,0,0,15.66,16.072l.211,0,.237,0V99.191H236.91V83.531Z" transform="translate(-163.531 -69.214)" fill="#b03633"/>
        <path id="Path_48" data-name="Path 48" d="M197.069,109.206l-8.22,16.053,6.852,13.378,8.323-15.26v-1.015Z" transform="translate(-159.282 -62.503)" fill="#9a3333"/>
        <path id="Path_49" data-name="Path 49" d="M188.44,95.042h-.04l.04.08Z" transform="translate(-159.357 -64.88)" fill="#a53835"/>
        <path id="Path_50" data-name="Path 50" d="M204.027,95.042H188.436v.08l8.7,16.461L204.1,98V95.08Z" transform="translate(-159.351 -64.88)" fill="#a53835"/>
        <path id="Path_51" data-name="Path 51" d="M202.843,97.573l-6.955,13.581,6.955,13.164Z" transform="translate(-158.101 -64.455)" fill="#933534"/>
        <path id="Path_52" data-name="Path 52" d="M195.422,134.407l-4.917,9.016c3.728,7.015,11.505,7.82,13.244,7.913v-.669Z" transform="translate(-159.004 -58.273)" fill="#9d3433"/>
        <path id="Path_53" data-name="Path 53" d="M203.04,121.34,194.715,136.6l8.325,16.253Z" transform="translate(-158.298 -60.466)" fill="#903332"/>
        <path id="Path_54" data-name="Path 54" d="M205.85,81.856H204.3l-14.184,7.5,13.625,7.9h.068V97.07h.662l13.982-6.409a5.882,5.882,0,0,1-.13-1.236l.015-.357a5.956,5.956,0,0,1,10.683-3.248l0,.008,0-.008a5.956,5.956,0,0,0-10.683,3.248Z" transform="translate(-159.069 -67.092)" fill="#9a3333"/>
        <path id="Path_55" data-name="Path 55" d="M201.853,95.042h-.066l.066.038Z" transform="translate(-157.111 -64.88)" fill="#933534"/>
        <path id="Path_56" data-name="Path 56" d="M207.292,81.488l-30.135.333V97.132h.548l14.587-7.714-12.939-7.5h27.127Z" transform="translate(-161.244 -67.154)" fill="#a53835"/>
        <path id="Path_57" data-name="Path 57" d="M206.165,81.856H179.038l12.939,7.5Z" transform="translate(-160.929 -67.092)" fill="#933534"/>
        <path id="Path_58" data-name="Path 58" d="M229.844,81.474H214.112l-11.148.026.285.166.335.193.11.062h26.15Zm0,3.059-2.971,1.361a5.88,5.88,0,0,1,1.212,3.6,5.96,5.96,0,0,1-2.67,4.973l4.428,2.559Z" transform="translate(-156.913 -67.156)" fill="#9d3433"/>
        <path id="Path_59" data-name="Path 59" d="M229.739,81.856h-26.15l12.49,7.212a5.957,5.957,0,0,1,10.684-3.248l0,.008,2.971-1.361Z" transform="translate(-156.808 -67.092)" fill="#903332"/>
        <path id="Path_60" data-name="Path 60" d="M171.1,99.655l-7.238,11.217,7.109,14.7,8.176-14.989c0-.167,0-.341,0-.508Z" transform="translate(-163.475 -64.105)" fill="#9a3333"/>
        <path id="Path_61" data-name="Path 61" d="M177.09,89.171v6.672h.078V89.282Z" transform="translate(-161.255 -65.865)" fill="#933534"/>
        <path id="Path_62" data-name="Path 62" d="M176.922,136.643v.04c-.368,0-.739-.014-1.106-.039.6.081,1.053.109,1.316.121v-.121h-.21" transform="translate(-161.469 -57.898)" fill="#c09f97"/>
        <path id="Path_63" data-name="Path 63" d="M174.5,136.415c.572.124,1.092.21,1.536.267.366.024.732.037,1.106.037v-.041a15.211,15.211,0,0,1-2.642-.264" transform="translate(-161.69 -57.936)" fill="#9d3433"/>
        <path id="Path_64" data-name="Path 64" d="M170.693,121.848l-5.175,9.484a15.213,15.213,0,0,0,10.493,7.524,15,15,0,0,0,2.639.27h.21v-.392Z" transform="translate(-163.198 -60.381)" fill="#9d3433"/>
        <path id="Path_65" data-name="Path 65" d="M178.128,109.01,169.949,124l8.165,16.887c0-3.08.006-19.1.014-31.879" transform="translate(-162.454 -62.535)" fill="#903332"/>
        <path id="Path_66" data-name="Path 66" d="M164.922,69.218c-.35.026-.656.123-1.031.155.068,0,.135-.008.206-.01.274-.037.557-.117.826-.145" transform="translate(-163.471 -69.213)" fill="#bb938a"/>
        <path id="Path_67" data-name="Path 67" d="M164.116,69.341l-.2.012H163.9l-.141.05a1.433,1.433,0,0,1,.253-.05l.1-.013" transform="translate(-163.493 -69.193)" fill="#9a3333"/>
        <path id="Path_68" data-name="Path 68" d="M165.181,69.214h-.048l-.152,0c-.269.028-.55.105-.824.144l-.106.013a1.431,1.431,0,0,0-.253.05l-.227.079-.026.013-.012.043,8.3,12.04,4.257-6.935a14.206,14.206,0,0,0-8.807-5.288c-.218-.035-.439-.061-.662-.089a13.654,13.654,0,0,0-1.442-.076m14.263,14.317h-.078v.35h.078Z" transform="translate(-163.531 -69.214)" fill="#9a3333"/>
        <path id="Path_69" data-name="Path 69" d="M177.168,81.773h-.078v8.165l.078-.119V81.773Z" transform="translate(-161.255 -67.106)" fill="#933534"/>
        <path id="Path_70" data-name="Path 70" d="M177.168,88.661l-.078.12v.475l.078.11Z" transform="translate(-161.255 -65.95)" fill="#893332"/>
        <path id="Path_71" data-name="Path 71" d="M171.824,79.821l-8.221,13.4,7.542,9.767L179.2,90.512Z" transform="translate(-163.519 -67.434)" fill="#9d3433"/>
        <path id="Path_72" data-name="Path 72" d="M178.113,88.974l-8.05,12.472,8.046,10.418c0-8.421.009-15.323.013-15.99h.149V89.2Z" transform="translate(-162.435 -65.898)" fill="#903332"/>
        <path id="Path_73" data-name="Path 73" d="M174.9,73.883l-4.254,6.935,7.374,10.689.159-.245V82.748h-.149a14.372,14.372,0,0,0-3.129-8.865" transform="translate(-162.338 -68.43)" fill="#903332"/>
        <path id="Path_74" data-name="Path 74" d="M177.113,88.764l-.159.246.159.229Z" transform="translate(-161.278 -65.933)" fill="#873232"/>
      </g>
    </g>
  </g>
</svg>
